# xmcd
#
# Track frame offsets:
#	150
#	10191
#	23445
#	33408
#	52284
#	68601
#	81673
#	98582
#	112739
#	127874
#
# Disc length: 1869 seconds
#
# Revision: 0
# Processed by: cddbd v1.5.1PL0 Copyright (c) Steve Scherf et al.
# Submitted via: dBpowerAMP V4.0
#
DISCID=71074b0a
DTITLE=Conklin, Geoff - All in the Touch
DYEAR=2003
DGENRE=Country
TTITLE0=Someday
TTITLE1=All in the Touch
TTITLE2=Ain't Gonna Let You Go
TTITLE3=Clear from Colorado
TTITLE4=Inclement Weather
TTITLE5=Maybe Mexico
TTITLE6=Suddenly in Santa Fe
TTITLE7=Crazy About You
TTITLE8=Herradura
TTITLE9=Street of Jerome
EXTD=
EXTT0=
EXTT1=
EXTT2=
EXTT3=
EXTT4=
EXTT5=
EXTT6=
EXTT7=
EXTT8=
EXTT9=
PLAYORDER=
